<svg width="233" height="53" viewBox="0 0 233 53" fill="none" xmlns="http://www.w3.org/2000/svg">
<g clip-path="url(#clip0_224_1959)">
<mask id="mask0_224_1959" style="mask-type:luminance" maskUnits="userSpaceOnUse" x="-9" y="-24" width="242" height="100">
<path d="M233 -24H-9V76H233V-24Z" fill="white"/>
</mask>
<g mask="url(#mask0_224_1959)">
<path d="M99.9837 40.68C100.747 40.3867 101.377 39.8587 101.876 39.096C102.404 38.304 102.668 37.0427 102.668 35.312V29.064C101.876 29.768 100.82 30.3107 99.4996 30.692C98.1796 31.044 96.9187 31.22 95.7157 31.22C92.6067 31.22 90.1423 30.4573 88.3236 28.932C86.5343 27.3773 85.6396 25.0893 85.6396 22.068V11.2H88.1036V22.508C88.1036 24.5613 88.8077 26.1307 90.2157 27.216C91.6237 28.272 93.4567 28.8 95.7157 28.8C97.4467 28.8 98.9566 28.4333 100.248 27.7C101.539 26.9667 102.345 25.8667 102.668 24.4V11.2H105.176V35.136C105.176 37.2773 104.765 38.964 103.944 40.196C103.152 41.3987 102.023 42.1027 100.556 42.308L99.9837 40.68ZM125.789 33.904C125.789 36.368 125.115 38.4067 123.765 40.02C122.416 41.6333 120.377 42.44 117.649 42.44C114.921 42.44 112.853 41.6333 111.445 40.02C110.067 38.3773 109.377 36.3387 109.377 33.904V28.096C109.377 25.3093 110.081 23.1827 111.489 21.716C112.927 20.22 114.98 19.472 117.649 19.472C120.201 19.472 122.196 20.2493 123.633 21.804C125.071 23.3293 125.789 25.4267 125.789 28.096V33.904ZM123.325 28.096C123.325 25.896 122.812 24.2827 121.785 23.256C120.788 22.2293 119.409 21.716 117.649 21.716C115.831 21.716 114.408 22.2293 113.381 23.256C112.355 24.2827 111.841 25.896 111.841 28.096V34.344C111.841 36.104 112.355 37.5267 113.381 38.612C114.437 39.6973 115.86 40.24 117.649 40.24C119.468 40.24 120.861 39.712 121.829 38.656C122.827 37.5707 123.325 36.1333 123.325 34.344V28.096ZM143.01 39.756C142.306 40.636 141.411 41.3107 140.326 41.78C139.27 42.2493 138.199 42.484 137.114 42.484C131.599 42.484 128.842 39.8 128.842 34.432V19.956H131.306V34.74C131.306 36.6173 131.819 38.0107 132.846 38.92C133.902 39.8293 135.324 40.284 137.114 40.284C138.874 40.284 140.252 39.844 141.25 38.964C142.276 38.0547 142.79 36.6467 142.79 34.74V19.956H145.254V42H142.834L143.01 39.756ZM149.622 19.956H152.086L151.954 21.496C153.332 20.2053 155.136 19.56 157.366 19.56C158.158 19.56 159.243 19.692 160.622 19.956L159.962 22.2C159.023 21.9067 158.04 21.76 157.014 21.76C155.664 21.76 154.506 22.0093 153.538 22.508C152.57 23.0067 152.086 23.7547 152.086 24.752V42H149.622V19.956ZM180.378 40.988C177.767 41.956 175.333 42.44 173.074 42.44C170.522 42.44 168.454 41.7653 166.87 40.416C165.286 39.0667 164.494 36.9107 164.494 33.948V19.824C164.494 17.5947 164.802 15.908 165.418 14.764C166.063 13.62 167.031 12.652 168.322 11.86C169.613 11.1267 171.197 10.76 173.074 10.76C175.362 10.76 177.43 11.244 179.278 12.212L178.574 13.884C176.902 13.268 175.318 12.96 173.822 12.96C172.033 12.96 170.434 13.4 169.026 14.28C167.647 15.16 166.958 16.876 166.958 19.428V33.86C166.958 35.884 167.486 37.4533 168.542 38.568C169.598 39.6533 171.182 40.196 173.294 40.196C175.142 40.196 177.327 39.7707 179.85 38.92L180.378 40.988ZM199.322 42C196.154 42.3227 193.866 42.484 192.458 42.484C189.378 42.484 186.929 41.912 185.11 40.768C183.291 39.624 182.382 37.556 182.382 34.564V30.912C182.382 28.008 183.394 26.0573 185.418 25.06C186.386 24.5613 187.618 24.312 189.114 24.312C190.493 24.312 191.886 24.5467 193.294 25.016C194.702 25.456 195.89 26.0427 196.858 26.776C196.858 25.1627 196.389 23.8867 195.45 22.948C194.511 21.98 192.707 21.496 190.038 21.496L190.17 19.604C192.986 19.604 195.054 20.0587 196.374 20.968C197.723 21.848 198.545 22.904 198.838 24.136C199.161 25.368 199.322 26.952 199.322 28.888V42ZM196.858 28.668C195.655 28.1107 194.365 27.6267 192.986 27.216C191.637 26.8053 190.39 26.6 189.246 26.6C186.283 26.6 184.802 28.0813 184.802 31.044V34.872C184.802 36.7787 185.462 38.172 186.782 39.052C188.102 39.9027 189.979 40.328 192.414 40.328C193.675 40.328 195.157 40.2107 196.858 39.976V28.668ZM203.59 19.956H206.054L205.922 21.496C207.301 20.2053 209.105 19.56 211.334 19.56C212.126 19.56 213.212 19.692 214.59 19.956L213.93 22.2C212.992 21.9067 212.009 21.76 210.982 21.76C209.633 21.76 208.474 22.0093 207.506 22.508C206.538 23.0067 206.054 23.7547 206.054 24.752V42H203.59V19.956ZM229.819 40.46C228.763 41.1347 227.56 41.648 226.211 42C224.862 42.352 223.512 42.528 222.163 42.528C219.992 42.528 218.262 42 216.971 40.944C215.71 39.8587 215.079 38.2453 215.079 36.104V27.084C215.079 24.708 215.812 22.86 217.279 21.54C218.775 20.22 220.74 19.56 223.175 19.56C225.61 19.56 227.502 20.22 228.851 21.54C230.23 22.8307 230.919 24.6347 230.919 26.952V32.672L217.543 33.42V36.104C217.543 37.512 217.998 38.568 218.907 39.272C219.816 39.976 221.004 40.328 222.471 40.328C224.524 40.328 226.651 39.7413 228.851 38.568L229.819 40.46ZM228.455 26.644C228.455 24.8253 227.883 23.5493 226.739 22.816C225.595 22.0533 224.392 21.672 223.131 21.672C221.518 21.672 220.183 22.112 219.127 22.992C218.071 23.872 217.543 25.2507 217.543 27.128V31L228.455 30.472V26.644Z" fill="#07A4B5"/>
<path d="M41.0059 45.0806C45.5686 43.42 46.0102 33.1248 41.9923 22.0857C37.9744 11.0466 31.0185 3.44393 26.4558 5.10463C21.8931 6.76523 21.4515 17.0604 25.4694 28.0995C29.4873 39.1386 36.4432 46.7413 41.0059 45.0806Z" stroke="#FFCB89" stroke-linecap="round" stroke-linejoin="round"/>
<path d="M41.0099 45.0736C43.062 40.673 36.0944 33.0809 25.4475 28.1162C14.8006 23.1514 4.50613 22.6941 2.45413 27.0947C0.402094 31.4953 7.36963 39.0873 18.0165 44.0521C28.6634 49.0168 38.9579 49.4741 41.0099 45.0736Z" stroke="#FFCB89" stroke-linecap="round" stroke-linejoin="round"/>
<path d="M56.5353 28.1028C60.5532 17.0637 60.1116 6.7685 55.5489 5.1078C50.9862 3.4471 44.0303 11.0498 40.0124 22.0889C35.9945 33.128 36.4361 43.4232 40.9988 45.0839C45.5614 46.7446 52.5174 39.1419 56.5353 28.1028Z" stroke="#FFCB89" stroke-linecap="round" stroke-linejoin="round"/>
<path d="M63.9925 44.0426C74.6394 39.0779 81.6069 31.4858 79.5549 27.0852C77.5029 22.6846 67.2083 23.1419 56.5614 28.1067C45.9145 33.0714 38.947 40.6635 40.999 45.0641C43.0511 49.4647 53.3456 49.0073 63.9925 44.0426Z" stroke="#FFCB89" stroke-linecap="round" stroke-linejoin="round"/>
</g>
</g>
<defs>
<clipPath id="clip0_224_1959">
<rect width="233" height="53" fill="white"/>
</clipPath>
</defs>
</svg>
