<svg width="233" height="50" viewBox="0 0 233 50" fill="none" xmlns="http://www.w3.org/2000/svg">
<path d="M99.9846 38.3286C100.748 38.0545 101.378 37.561 101.877 36.8481C102.405 36.1078 102.669 34.9289 102.669 33.3112V27.4713C101.877 28.1293 100.821 28.6366 99.5006 28.993C98.1806 29.322 96.9196 29.4865 95.7166 29.4865C92.6076 29.4865 90.1433 28.7736 88.3246 27.3479C86.5353 25.8948 85.6406 23.7562 85.6406 20.9322V10.7741H88.1046V21.3435C88.1046 23.2627 88.8086 24.7296 90.2166 25.744C91.6246 26.731 93.4576 27.2245 95.7166 27.2245C97.4476 27.2245 98.9576 26.8818 100.249 26.1964C101.54 25.511 102.346 24.4828 102.669 23.1119V10.7741H105.177V33.1467C105.177 35.1482 104.766 36.7247 103.945 37.8762C103.153 39.0004 102.024 39.6584 100.557 39.8503L99.9846 38.3286ZM125.79 31.9952C125.79 34.2982 125.116 36.2038 123.766 37.7117C122.417 39.2197 120.378 39.9737 117.65 39.9737C114.922 39.9737 112.854 39.2197 111.446 37.7117C110.068 36.1763 109.378 34.2709 109.378 31.9952V26.5665C109.378 23.9618 110.082 21.9741 111.49 20.6032C112.928 19.2049 114.981 18.5058 117.65 18.5058C120.202 18.5058 122.197 19.2323 123.634 20.6855C125.072 22.1112 125.79 24.0716 125.79 26.5665V31.9952ZM123.326 26.5665C123.326 24.5102 122.813 23.0023 121.786 22.0426C120.789 21.083 119.41 20.6032 117.65 20.6032C115.832 20.6032 114.409 21.083 113.382 22.0426C112.356 23.0023 111.842 24.5102 111.842 26.5665V32.4064C111.842 34.0515 112.356 35.3813 113.382 36.3957C114.438 37.4101 115.861 37.9174 117.65 37.9174C119.469 37.9174 120.862 37.4238 121.83 36.4368C122.828 35.4224 123.326 34.0789 123.326 32.4064V26.5665ZM143.011 37.465C142.307 38.2875 141.412 38.9181 140.327 39.3568C139.271 39.7954 138.2 40.0148 137.115 40.0148C131.6 40.0148 128.843 37.5061 128.843 32.4887V18.9582H131.307V32.7766C131.307 34.5313 131.82 35.8337 132.847 36.6836C133.903 37.5335 135.325 37.9585 137.115 37.9585C138.875 37.9585 140.253 37.5472 141.251 36.7247C142.277 35.8748 142.791 34.5587 142.791 32.7766V18.9582H145.255V39.5624H142.835L143.011 37.465ZM149.623 18.9582H152.087L151.955 20.3976C153.333 19.1912 155.137 18.588 157.367 18.588C158.159 18.588 159.244 18.7114 160.623 18.9582L159.963 21.0556C159.024 20.7815 158.041 20.6443 157.015 20.6443C155.665 20.6443 154.507 20.8774 153.539 21.3435C152.571 21.8096 152.087 22.5088 152.087 23.4409V39.5624H149.623V18.9582ZM180.379 38.6165C177.768 39.5213 175.334 39.9737 173.075 39.9737C170.523 39.9737 168.455 39.343 166.871 38.0819C165.287 36.8207 164.495 34.8055 164.495 32.0363V18.8348C164.495 16.7511 164.803 15.1746 165.419 14.1053C166.064 13.036 167.032 12.1312 168.323 11.391C169.614 10.7055 171.198 10.3628 173.075 10.3628C175.363 10.3628 177.431 10.8152 179.279 11.72L178.575 13.2828C176.903 12.707 175.319 12.4191 173.823 12.4191C172.034 12.4191 170.435 12.8304 169.027 13.6529C167.648 14.4754 166.959 16.0793 166.959 18.4647V31.9541C166.959 33.8459 167.487 35.3127 168.543 36.3546C169.599 37.369 171.183 37.8762 173.295 37.8762C175.143 37.8762 177.328 37.4787 179.851 36.6836L180.379 38.6165ZM199.323 39.5624C196.155 39.864 193.867 40.0148 192.459 40.0148C189.379 40.0148 186.93 39.4802 185.111 38.4109C183.292 37.3416 182.383 35.4087 182.383 32.6121V29.1986C182.383 26.4843 183.395 24.661 185.419 23.7288C186.387 23.2627 187.619 23.0297 189.115 23.0297C190.494 23.0297 191.887 23.249 193.295 23.6877C194.703 24.0989 195.891 24.6473 196.859 25.3327C196.859 23.8248 196.39 22.6321 195.451 21.7548C194.512 20.85 192.708 20.3976 190.039 20.3976L190.171 18.6292C192.987 18.6292 195.055 19.0542 196.375 19.9041C197.724 20.7266 198.546 21.7136 198.839 22.8652C199.162 24.0167 199.323 25.4972 199.323 27.3068V39.5624ZM196.859 27.1012C195.656 26.5803 194.366 26.1279 192.987 25.744C191.638 25.3601 190.391 25.1682 189.247 25.1682C186.284 25.1682 184.803 26.5528 184.803 29.322V32.9C184.803 34.6821 185.463 35.9844 186.783 36.8069C188.103 37.6021 189.98 37.9996 192.415 37.9996C193.676 37.9996 195.158 37.89 196.859 37.6706V27.1012ZM203.591 18.9582H206.055L205.923 20.3976C207.302 19.1912 209.106 18.588 211.335 18.588C212.127 18.588 213.213 18.7114 214.591 18.9582L213.931 21.0556C212.993 20.7815 212.01 20.6443 210.983 20.6443C209.634 20.6443 208.475 20.8774 207.507 21.3435C206.539 21.8096 206.055 22.5088 206.055 23.4409V39.5624H203.591V18.9582ZM229.82 38.123C228.764 38.7536 227.561 39.2334 226.212 39.5624C224.863 39.8914 223.513 40.0559 222.164 40.0559C219.993 40.0559 218.263 39.5624 216.972 38.5754C215.711 37.561 215.08 36.0529 215.08 34.0515V25.6206C215.08 23.3998 215.813 21.6725 217.28 20.4387C218.776 19.2049 220.741 18.588 223.176 18.588C225.611 18.588 227.503 19.2049 228.852 20.4387C230.231 21.6451 230.92 23.3313 230.92 25.4972V30.8436L217.544 31.5428V34.0515C217.544 35.3675 217.999 36.3546 218.908 37.0126C219.817 37.6706 221.005 37.9996 222.472 37.9996C224.525 37.9996 226.652 37.4512 228.852 36.3546L229.82 38.123ZM228.456 25.2094C228.456 23.5094 227.884 22.3168 226.74 21.6314C225.596 20.9185 224.393 20.5621 223.132 20.5621C221.519 20.5621 220.184 20.9734 219.128 21.7959C218.072 22.6184 217.544 23.9071 217.544 25.6617V29.2809L228.456 28.7873V25.2094Z" fill="#F9FCFD"/>
<path d="M41.0059 42.4416C45.5686 40.8895 46.0102 31.2667 41.9923 20.9486C37.9744 10.6305 31.0185 3.52434 26.4558 5.07658C21.8931 6.62872 21.4515 16.2515 25.4694 26.5696C29.4873 36.8877 36.4432 43.9938 41.0059 42.4416Z" stroke="#FFCB89" stroke-linecap="round" stroke-linejoin="round"/>
<path d="M41.0099 42.435C43.062 38.3218 36.0944 31.2256 25.4475 26.5852C14.8006 21.9446 4.50613 21.5172 2.45413 25.6304C0.402094 29.7436 7.36963 36.8397 18.0165 41.4802C28.6634 46.1207 38.9579 46.5481 41.0099 42.435Z" stroke="#FFCB89" stroke-linecap="round" stroke-linejoin="round"/>
<path d="M56.5353 26.5731C60.5532 16.255 60.1116 6.63223 55.5489 5.07999C50.9862 3.52776 44.0303 10.6339 40.0124 20.952C35.9945 31.2701 36.4361 40.8929 40.9988 42.4451C45.5614 43.9974 52.5174 36.8912 56.5353 26.5731Z" stroke="#FFCB89" stroke-linecap="round" stroke-linejoin="round"/>
<path d="M63.9925 41.4714C74.6394 36.831 81.6069 29.7348 79.5549 25.6216C77.5029 21.5084 67.2083 21.9358 56.5614 26.5764C45.9145 31.2168 38.947 38.313 40.999 42.4262C43.0511 46.5394 53.3456 46.1119 63.9925 41.4714Z" stroke="#FFCB89" stroke-linecap="round" stroke-linejoin="round"/>
</svg>
