<svg width="30" height="30" viewBox="0 0 30 30" fill="none" xmlns="http://www.w3.org/2000/svg">
<g clip-path="url(#clip0_102_3793)">
<path d="M10.5836 8.93789L9.47095 8.71055C9.55825 7.03301 10.3956 5.55117 11.6536 4.59434C12.1334 4.22871 12.6743 3.94043 13.2579 3.74648C13.8057 3.56426 14.3917 3.46582 14.9999 3.46582C15.6081 3.46582 16.194 3.56426 16.7418 3.74648C17.3254 3.94043 17.8663 4.22871 18.3461 4.59434C19.5995 5.54766 20.4356 7.02305 20.5276 8.69297L19.4108 8.93906C16.5356 9.51973 15.918 7.85566 15.8477 7.62891C15.754 7.23926 15.4106 6.975 15.0092 6.96914C14.6067 6.96445 14.2545 7.24453 14.1508 7.63359C14.1497 7.6377 14.0108 8.08008 13.5743 8.46328C12.9092 9.04629 11.9032 9.20566 10.5836 8.93789Z" fill="#FFCB89"/>
<path d="M20.5364 10.4912V11.2693C20.5364 14.3221 18.0526 16.8059 14.9999 16.8059C11.9472 16.8059 9.46338 14.3221 9.46338 11.2693V10.5035C10.1557 10.6537 11.0808 10.8384 11.7175 10.8193C13.1952 10.8187 14.1526 10.2937 14.7333 9.78457C14.83 9.7002 14.9185 9.61406 14.9999 9.52734C15.0813 9.61406 15.1698 9.7002 15.2665 9.78457C15.8472 10.2937 16.8046 10.8193 18.2823 10.8193C18.9198 10.8383 19.8469 10.6571 20.5364 10.4912Z" fill="#FFCB89"/>
<path d="M18.3772 2.5377C18.031 2.35605 17.6694 2.20254 17.2962 2.07832C16.5573 1.83281 15.7851 1.70801 14.9999 1.70801C14.2147 1.70801 13.4425 1.83281 12.703 2.07832C12.3304 2.20254 11.9683 2.35605 11.6226 2.5377C12.0474 1.07344 13.4009 0 14.9999 0C16.5989 0 17.9524 1.07344 18.3772 2.5377Z" fill="#FFCB89"/>
<path d="M29.9999 8.16543V18.5937C29.9999 19.9724 29.4632 21.2679 28.4888 22.2429L25.3405 25.3911C24.2067 26.5215 23.514 27.726 23.3512 29.2233C23.303 29.6666 22.9244 30.0002 22.4785 30.0002H17.6079C17.1225 30.0002 16.729 29.6066 16.729 29.1213V24.3546C16.729 22.888 17.3003 21.5087 18.3374 20.4716L23.3138 15.4958C23.5646 15.245 23.8985 15.1067 24.2536 15.1067C24.6087 15.1067 24.9421 15.245 25.194 15.497C25.4448 15.7472 25.5831 16.0812 25.5831 16.4362C25.5831 16.7913 25.4448 17.1253 25.1935 17.3761L21.4751 21.0944C21.1317 21.4378 21.1317 21.9944 21.4751 22.3372C21.8185 22.6806 22.3745 22.6806 22.7179 22.3372L26.4356 18.6194C27.0192 18.037 27.3409 17.2618 27.3409 16.4362V8.15594C27.3409 7.78276 27.4822 7.41813 27.7516 7.15991C28.0085 6.91364 28.3428 6.78286 28.7026 6.79141C29.4181 6.80782 29.9999 7.42422 29.9999 8.16543Z" fill="#FFCB89"/>
<path d="M0 8.16543V18.5937C0 19.9724 0.536719 21.2679 1.51113 22.2429L4.65937 25.3911C5.79322 26.5215 6.48586 27.726 6.64869 29.2233C6.69691 29.6666 7.07555 30.0002 7.52139 30.0002H12.3919C12.8773 30.0002 13.2708 29.6066 13.2708 29.1213V24.3546C13.2708 22.888 12.6996 21.5087 11.6624 20.4716L6.68607 15.4958C6.43529 15.245 6.10131 15.1067 5.74623 15.1067C5.39115 15.1067 5.05775 15.245 4.8058 15.497C4.55502 15.7472 4.41674 16.0812 4.41674 16.4362C4.41674 16.7913 4.55502 17.1253 4.80639 17.3761L8.52475 21.0944C8.8681 21.4378 8.8681 21.9944 8.52475 22.3372C8.18139 22.6806 7.62533 22.6806 7.28197 22.3372L3.5642 18.6194C2.98061 18.037 2.65893 17.2618 2.65893 16.4362V8.15594C2.65893 7.78276 2.51766 7.41813 2.24824 7.15991C1.99131 6.91364 1.65703 6.78286 1.29721 6.79141C0.581836 6.80782 0 7.42422 0 8.16543Z" fill="#FFCB89"/>
</g>
<defs>
<clipPath id="clip0_102_3793">
<rect width="30" height="30" fill="white"/>
</clipPath>
</defs>
</svg>
