<svg width="30" height="30" viewBox="0 0 30 30" fill="none" xmlns="http://www.w3.org/2000/svg">
<path d="M15.8789 22.9101V29.9999H14.1211V22.9101C14.1211 22.4256 14.5154 22.0312 15 22.0312C15.4846 22.0312 15.8789 22.4256 15.8789 22.9101Z" fill="#FFCB89"/>
<path d="M21.1523 18.9844H22.9101V20.7422H21.1523V18.9844Z" fill="#FFCB89"/>
<path d="M7.09002 18.9843V20.7421H8.8478V18.9843H7.09002ZM7.09002 18.9843V20.7421H8.8478V18.9843H7.09002ZM7.09002 18.9843V20.7421H8.8478V18.9843H7.09002ZM7.09002 18.9843V20.7421H8.8478V18.9843H7.09002ZM1.81665 15.4688V23.5224C2.18696 23.4286 2.57426 23.3788 2.97328 23.3788C3.91662 23.3788 4.82188 23.6559 5.59297 24.1704C8.04449 24.1979 10.0302 26.2012 10.0302 28.6592C10.0302 29.1156 9.96165 29.5656 9.82572 29.9998H12.3634V22.9101C12.3634 21.4564 13.5464 20.2734 15.0001 20.2734C16.4538 20.2734 17.6367 21.4564 17.6367 22.9101V29.9998H20.1744C20.0391 29.5662 19.9699 29.115 19.9699 28.6592C19.9699 26.2012 21.9556 24.1979 24.4072 24.1704C25.1782 23.6559 26.0835 23.3788 27.0269 23.3788C27.4259 23.3788 27.8132 23.4286 28.1835 23.5224V15.4688H1.81665ZM10.6056 21.621C10.6056 22.1062 10.2118 22.4999 9.7267 22.4999H6.21112C5.72597 22.4999 5.33223 22.1062 5.33223 21.621V18.1054C5.33223 17.6203 5.72597 17.2265 6.21112 17.2265H9.7267C10.2118 17.2265 10.6056 17.6203 10.6056 18.1054V21.621ZM24.6679 21.621C24.6679 22.1062 24.2742 22.4999 23.789 22.4999H20.2734C19.7883 22.4999 19.3945 22.1062 19.3945 21.621V18.1054C19.3945 17.6203 19.7883 17.2265 20.2734 17.2265H23.789C24.2742 17.2265 24.6679 17.6203 24.6679 18.1054V21.621ZM7.09002 20.7421H8.8478V18.9843H7.09002V20.7421ZM7.09002 18.9843V20.7421H8.8478V18.9843H7.09002ZM7.09002 18.9843V20.7421H8.8478V18.9843H7.09002Z" fill="#FFCB89"/>
<path d="M8.27228 28.6591C8.27228 28.955 8.22505 29.2468 8.13195 29.5257C8.03703 29.8092 7.7716 29.9999 7.4729 29.9999H1.03353C0.793124 29.9999 0.569416 29.8754 0.442562 29.6706C0.153113 29.2028 0.000244141 28.6628 0.000244141 28.1098C0.000244141 26.4702 1.3337 25.1367 2.97331 25.1367C3.74773 25.1367 4.4911 25.4433 5.04088 25.9746C5.20529 25.944 5.37298 25.9283 5.54202 25.9283C7.04769 25.9283 8.27228 27.1534 8.27228 28.6591Z" fill="#FFCB89"/>
<path d="M21.7278 28.6591C21.7278 28.955 21.775 29.2468 21.8681 29.5257C21.963 29.8092 22.2285 29.9999 22.5272 29.9999H28.9665C29.2069 29.9999 29.4306 29.8754 29.5575 29.6706C29.8469 29.2028 29.9998 28.6628 29.9998 28.1098C29.9998 26.4702 28.6664 25.1367 27.0268 25.1367C26.2523 25.1367 25.509 25.4433 24.9592 25.9746C24.7948 25.944 24.6271 25.9283 24.458 25.9283C22.9524 25.9283 21.7278 27.1534 21.7278 28.6591Z" fill="#FFCB89"/>
<path d="M7.08984 8.43774H8.84763V10.1955H7.08984V8.43774Z" fill="#FFCB89"/>
<path d="M14.1211 8.43763V10.1954H15.8789V8.43763H14.1211ZM14.1211 8.43763V10.1954H15.8789V8.43763H14.1211ZM29.4256 5.26951L15.3047 0.0547356C15.1078 -0.0179197 14.8922 -0.0179197 14.6953 0.0547356L0.574411 5.26951C0.119143 5.43767 -0.113471 5.94333 0.0546912 6.39859C0.222853 6.85386 0.72851 7.08647 1.18378 6.91831L1.81658 6.68453V13.711H28.1834V6.68453L28.8162 6.91831C28.917 6.95523 29.0195 6.9728 29.1209 6.9728C29.4783 6.9728 29.814 6.75308 29.9453 6.39859C30.1135 5.94333 29.8808 5.43767 29.4256 5.26951ZM10.6055 11.0743C10.6055 11.5595 10.2118 11.9532 9.72663 11.9532H6.21105C5.7259 11.9532 5.33216 11.5595 5.33216 11.0743V7.55873C5.33216 7.07358 5.7259 6.67984 6.21105 6.67984H9.72663C10.2118 6.67984 10.6055 7.07358 10.6055 7.55873V11.0743ZM17.6367 11.0743C17.6367 11.5595 17.2429 11.9532 16.7578 11.9532H13.2422C12.7571 11.9532 12.3633 11.5595 12.3633 11.0743V7.55873C12.3633 7.07358 12.7571 6.67984 13.2422 6.67984H16.7578C17.2429 6.67984 17.6367 7.07358 17.6367 7.55873V11.0743ZM24.6678 11.0743C24.6678 11.5595 24.2741 11.9532 23.7889 11.9532H20.2734C19.7882 11.9532 19.3945 11.5595 19.3945 11.0743V7.55873C19.3945 7.07358 19.7882 6.67984 20.2734 6.67984H23.7889C24.2741 6.67984 24.6678 7.07358 24.6678 7.55873V11.0743ZM21.1523 10.1954H22.91V8.43763H21.1523V10.1954ZM14.1211 10.1954H15.8789V8.43763H14.1211V10.1954Z" fill="#FFCB89"/>
<path d="M0.879138 13.7109H1.81663V15.4687H0.879138C0.393989 15.4687 0.000244141 15.075 0.000244141 14.5898C0.000244141 14.1047 0.393989 13.7109 0.879138 13.7109Z" fill="#FFCB89"/>
<path d="M29.9997 14.5898C29.9997 15.075 29.606 15.4687 29.1208 15.4687H28.1833V13.7109H29.1208C29.606 13.7109 29.9997 14.1047 29.9997 14.5898Z" fill="#FFCB89"/>
</svg>
